<mxfile host="app.diagrams.net" modified="2023-09-22T02:09:32.857Z" agent="Mozilla/5.0 (Windows NT 10.0; Win64; x64) AppleWebKit/537.36 (KHTML, like Gecko) Chrome/116.0.0.0 Safari/537.36" version="21.7.5" etag="8LONvjQorIC5YV766gBR" type="github">
  <diagram name="Halaman-1" id="vyvW3OYYwerjRX_K9335">
    <mxGraphModel>
      <root>
        <mxCell id="0" />
        <mxCell id="1" parent="0" />
      </root>
    </mxGraphModel>
  </diagram>
</mxfile>
